<?xml version="1.0" encoding="UTF-8"?>
<svg version="1.1" xmlns="http://www.w3.org/2000/svg" width="1200" height="1200">
<path d="M0 0 C1.89455933 0.00737183 1.89455933 0.00737183 3.82739258 0.01489258 C14.07073705 0.14225674 23.82916051 1.03110708 33.8125 3.3125 C34.9257666 3.56193359 34.9257666 3.56193359 36.06152344 3.81640625 C47.95670718 6.57441364 58.85585832 10.97698199 69.8125 16.3125 C70.46847168 16.62558105 71.12444336 16.93866211 71.80029297 17.26123047 C87.72183397 24.93166937 101.30878952 35.9191039 113.8125 48.3125 C114.67230469 49.15941406 115.53210938 50.00632812 116.41796875 50.87890625 C151.63296259 87.54952782 157.17131706 134.99421247 157.08115101 183.45088506 C157.07597038 187.12623044 157.08081489 190.80156752 157.08392334 194.47691345 C157.08752834 200.63965689 157.0828559 206.80235187 157.07324219 212.96508789 C157.06235956 220.02132901 157.06589602 227.07745446 157.076895 234.1336928 C157.08606232 240.26782863 157.08720784 246.40193028 157.08201766 252.53607076 C157.07894974 256.16660952 157.07834138 259.79709449 157.08509064 263.42762947 C157.16663006 314.48124537 148.32224639 358.87008357 112.8125 397.3125 C112.14992188 398.05757812 111.48734375 398.80265625 110.8046875 399.5703125 C100.77316946 410.32158071 87.83802073 418.7709856 75.12792969 425.99414062 C72.41326578 427.53981598 69.71051016 429.10537092 67.0078125 430.671875 C61.42429224 433.9050463 55.83303313 437.12458158 50.23974609 440.34082031 C44.76094203 443.49275232 39.28688887 446.65290797 33.8125 449.8125 C31.64585774 451.0625423 29.47919103 452.31254224 27.3125 453.5625 C26.24 454.18125 25.1675 454.8 24.0625 455.4375 C20.8125 457.3125 17.5625 459.1875 14.3125 461.0625 C13.2390332 461.68181396 12.16556641 462.30112793 11.05957031 462.93920898 C8.90269097 464.18354998 6.74579008 465.42785364 4.58886719 466.67211914 C-2.12436693 470.54486555 -8.83696977 474.4187019 -15.54833984 478.29467773 C-17.787209 479.58635783 -20.02710006 480.87626844 -22.26806641 482.16430664 C-28.77828649 485.90458592 -28.77828649 485.90458592 -35.2265625 489.75 C-70.42649968 510.85347522 -112.83320355 516.24392846 -152.46582031 506.47070312 C-181.66850419 498.80920375 -205.99838904 483.50161096 -227.1875 462.3125 C-227.81011719 461.73628906 -228.43273437 461.16007812 -229.07421875 460.56640625 C-255.33664294 435.89909676 -268.0028212 397.37467966 -270.1875 362.3125 C-270.32487455 357.46042487 -270.3344537 352.61138056 -270.33276367 347.75756836 C-270.33576403 346.33836785 -270.33916854 344.91916815 -270.34294128 343.49996948 C-270.35169847 339.67927383 -270.35411593 335.85860064 -270.35475707 332.03789592 C-270.35547255 329.63961164 -270.35761624 327.2413329 -270.36025429 324.84305 C-270.36948187 316.44394703 -270.37359262 308.04485983 -270.37280273 299.64575195 C-270.37220335 291.86942082 -270.38273451 284.09315937 -270.3985464 276.31684583 C-270.4117117 269.5978879 -270.41698286 262.87895248 -270.41634732 256.15998179 C-270.41609487 252.16609237 -270.41880371 248.17226493 -270.42952538 244.1783886 C-270.53054232 203.758476 -270.53054232 203.758476 -266.0625 185.875 C-265.85149658 185.01503418 -265.64049316 184.15506836 -265.4230957 183.26904297 C-255.05889629 143.17855148 -228.88236708 108.97986912 -193.47167969 87.81982422 C-190.57523947 86.1185306 -187.66393872 84.44419178 -184.74755859 82.77734375 C-181.90626001 81.15157687 -179.0719397 79.51404604 -176.23828125 77.875 C-170.68969696 74.66688015 -165.13671271 71.46646365 -159.58251953 68.26806641 C-154.1158002 65.11917946 -148.65175113 61.96566736 -143.1875 58.8125 C-141.02084689 57.5624765 -138.85418021 56.31247653 -136.6875 55.0625 C-135.615 54.44375 -134.5425 53.825 -133.4375 53.1875 C-130.1875 51.3125 -126.9375 49.4375 -123.6875 47.5625 C-122.61411377 46.94318604 -121.54072754 46.32387207 -120.43481445 45.68579102 C-118.27728399 44.44116796 -116.11957036 43.19686236 -113.96166992 41.95288086 C-108.40364791 38.74825177 -102.84924914 35.53754775 -97.30078125 32.31640625 C-90.94186028 28.62702588 -84.56894769 24.96275131 -78.1875 21.3125 C-77.43404297 20.8779248 -76.68058594 20.44334961 -75.90429688 19.99560547 C-52.72247769 6.69023059 -26.71346635 -0.12463515 0 0 Z " fill="#FFFFFF" transform="translate(900.1875,493.6875)"/>
<path d="M0 0 C1.26231445 0.00491455 2.52462891 0.0098291 3.82519531 0.01489258 C40.85170437 0.47548005 71.21320237 16.21675243 102.44140625 34.57421875 C108.83716753 38.33370964 115.25886557 42.04706789 121.6875 45.75 C122.76700928 46.37213379 123.84651855 46.99426758 124.95874023 47.63525391 C127.1491475 48.89747833 129.33965872 50.15952237 131.53027344 51.42138672 C138.03696248 55.17033147 144.54108161 58.92373653 151.04443359 62.6784668 C156.55684069 65.86042875 162.0723804 69.03673681 167.59375 72.203125 C173.03705954 75.326516 178.47181068 78.46419434 183.89746094 81.61816406 C185.74277796 82.69073526 187.58959911 83.76072637 189.43847656 84.82714844 C226.86169407 106.4916479 254.18432546 139.36003869 265.8125 181.3125 C269.44977105 195.78545528 270.96308017 209.70250858 270.97363281 224.61254883 C270.97826958 226.14790972 270.98329537 227.68326947 270.98867798 229.21862793 C271.00172711 233.3701315 271.008233 237.52161896 271.01268864 241.67313981 C271.01563339 244.27694996 271.01974089 246.88075585 271.02419281 249.48456383 C271.03785219 257.66020173 271.04752471 265.83582973 271.0513947 274.01147825 C271.0558624 283.39416563 271.07335676 292.7767064 271.1023953 302.15934926 C271.12415116 309.44641017 271.13410644 316.73343027 271.13543582 324.02052325 C271.13647458 328.35601792 271.14218013 332.69137452 271.16025543 337.02683449 C271.35123656 385.60338622 261.22427538 428.94532462 226.43359375 464.71484375 C196.63063596 494.62921446 156.89739548 510.62467503 114.8125 511.5625 C76.26510484 510.65361551 44.9296331 495.43069164 12.37890625 476.01953125 C6.74390848 472.66442895 1.05800418 469.39789491 -4.625 466.125 C-5.73214355 465.4870752 -6.83928711 464.84915039 -7.97998047 464.19189453 C-10.25069286 462.88374186 -12.52152727 461.57580098 -14.79248047 460.26806641 C-21.33656756 456.49860448 -27.87744817 452.72357898 -34.41772461 448.94750977 C-39.93070724 445.7652325 -45.44681125 442.58858959 -50.96875 439.421875 C-57.38672769 435.73882044 -63.79348478 432.03700319 -70.1875 428.3125 C-71.06470703 427.80203125 -71.94191406 427.2915625 -72.84570312 426.765625 C-83.27768767 420.65909746 -92.92365378 414.08370603 -102.1875 406.3125 C-103.48300781 405.2296875 -103.48300781 405.2296875 -104.8046875 404.125 C-109.73345923 399.8766311 -114.04943942 395.32663647 -118.1875 390.3125 C-118.80109375 389.59835937 -119.4146875 388.88421875 -120.046875 388.1484375 C-143.97809615 359.526697 -155.3226638 323.85401798 -155.34863281 286.9206543 C-155.3532695 285.37544132 -155.35829528 283.83022948 -155.36367798 282.28501892 C-155.37672782 278.1066567 -155.38323314 273.92831049 -155.38768864 269.7499311 C-155.39063326 267.12936999 -155.39474073 264.50881312 -155.39919281 261.88825417 C-155.41285234 253.66029053 -155.4225248 245.43233675 -155.4263947 237.20436257 C-155.43086251 227.76111505 -155.44835735 218.3180132 -155.4773953 208.87480992 C-155.49914988 201.54104029 -155.50910637 194.2073112 -155.51043582 186.87350971 C-155.51147467 182.51006973 -155.5171821 178.14676694 -155.53525543 173.78336143 C-155.71562241 127.60607571 -147.46029036 86.38481123 -115.1640625 51.48046875 C-113.05196966 49.22156755 -113.05196966 49.22156755 -110.8125 46.25 C-106.7413175 41.69415292 -101.98814671 38.07196749 -97.1875 34.3125 C-95.79144531 33.19294922 -95.79144531 33.19294922 -94.3671875 32.05078125 C-67.47956354 11.06085137 -34.05145065 -0.15888221 0 0 Z " fill="#FFFFFF" transform="translate(299.1875,493.6875)"/>
<path d="M0 0 C4.79734503 2.83539473 9.65617379 5.55872464 14.51708984 8.28320312 C23.3381035 13.24314169 32.09623983 18.30263058 40.83007812 23.41430664 C48.16927662 27.70902233 55.52524446 31.97359552 62.89208984 36.22070312 C63.96338135 36.83953369 65.03467285 37.45836426 66.13842773 38.09594727 C71.72926494 41.32305601 77.32985153 44.53138561 82.94677734 47.71289062 C125.45500323 71.85794939 157.20880261 102.81426362 170.73193359 150.87695312 C182.10305514 193.15271557 174.60144707 235.7563399 153.37353516 273.47314453 C150.35742006 278.6096602 146.84713835 283.22001001 143.01708984 287.78320312 C142.08198559 288.93147093 141.14710139 290.07991795 140.21240234 291.22851562 C123.91051193 311.00031861 104.29003631 323.79231627 82.02294922 336.10351562 C77.04324043 338.8861989 72.12476602 341.77195327 67.20458984 344.65820312 C55.60279254 351.45039757 43.96198187 358.17329614 32.3125 364.88330078 C29.00793996 366.78847831 25.70555505 368.69737301 22.40380859 370.60742188 C15.94687011 374.34192378 9.48458926 378.06702104 3.01708984 381.78320312 C1.9885791 382.37439941 0.96006836 382.9655957 -0.09960938 383.57470703 C-42.92072156 408.13838594 -85.50373815 421.70229273 -135.0065918 408.8347168 C-160.43568092 401.78001486 -182.99936157 387.81093502 -205.52197266 374.41992188 C-211.12536861 371.0944451 -216.77448482 367.8482606 -222.42041016 364.59570312 C-223.52779541 363.95761719 -224.63518066 363.31953125 -225.77612305 362.66210938 C-228.04660095 361.35413622 -230.31719115 360.04635799 -232.58789062 358.73876953 C-235.89870301 356.83170731 -239.20860277 354.92307357 -242.51806641 353.01367188 C-244.12053223 352.08917236 -244.12053223 352.08917236 -245.75537109 351.14599609 C-247.90608715 349.9046978 -250.05647822 348.66283624 -252.20654297 347.42041016 C-257.75214897 344.21715691 -263.30457854 341.02679072 -268.86962891 337.85742188 C-312.41230184 313.01224766 -346.11049604 282.97151465 -360.28955078 233.3671875 C-366.74797602 209.47314561 -368.01048861 181.90989624 -361.98291016 157.78320312 C-361.78955078 156.97447754 -361.59619141 156.16575195 -361.39697266 155.33251953 C-355.27170106 130.24064693 -343.99270401 108.2409009 -326.98291016 88.78320312 C-326.30486328 87.98398438 -325.62681641 87.18476563 -324.92822266 86.36132812 C-320.62123904 81.36723817 -316.10075776 76.93820143 -310.98291016 72.78320312 C-310.03673828 72.01105469 -309.09056641 71.23890625 -308.11572266 70.44335938 C-300.18099282 64.0906163 -291.7840982 58.83747587 -282.98291016 53.78320312 C-281.0425281 52.65998512 -279.10244662 51.53624779 -277.16259766 50.41210938 C-271.58379296 47.18371561 -265.99783084 43.96789429 -260.41015625 40.75488281 C-254.93135219 37.6029508 -249.45729903 34.44279516 -243.98291016 31.28320312 C-241.8162679 30.03316082 -239.64960119 28.78316089 -237.48291016 27.53320312 C-236.41041016 26.91445312 -235.33791016 26.29570312 -234.23291016 25.65820312 C-230.98291016 23.78320312 -227.73291016 21.90820312 -224.48291016 20.03320312 C-222.87319336 19.10447388 -222.87319336 19.10447388 -221.23095703 18.15698242 C-219.07090922 16.91086344 -216.91075349 15.66493151 -214.75048828 14.41918945 C-209.23163936 11.23635904 -203.71488014 8.04999401 -198.20166016 4.85742188 C-192.77034311 1.71297516 -187.33206382 -1.4191135 -181.88916016 -4.54345703 C-179.2479468 -6.06419597 -176.6149199 -7.59818039 -173.98291016 -9.13476562 C-116.31160853 -42.46850796 -54.98822159 -32.84714083 0 0 Z " fill="#FFFFFF" transform="translate(694.98291015625,136.216796875)"/>
</svg>
