<?xml version="1.0" standalone="no"?>
<!DOCTYPE svg PUBLIC "-//W3C//DTD SVG 20010904//EN"
 "http://www.w3.org/TR/2001/REC-SVG-20010904/DTD/svg10.dtd">
<svg version="1.0" xmlns="http://www.w3.org/2000/svg"
 width="1200.000000pt" height="1200.000000pt" viewBox="0 0 1200.000000 1200.000000"
 preserveAspectRatio="xMidYMid meet">
<metadata>
Created by potrace 1.14, written by Peter Selinger 2001-2017
</metadata>
<g transform="translate(0.000000,1200.000000) scale(0.100000,-0.100000)"
fill="#000000" stroke="none">
<path d="M5898 10934 c-2 -1 -30 -4 -63 -7 -33 -3 -73 -8 -90 -12 -114 -22
-147 -30 -229 -57 -50 -17 -131 -49 -181 -73 -98 -47 -548 -305 -553 -317 -2
-5 -8 -8 -13 -8 -14 0 -766 -433 -779 -449 -3 -3 -32 -24 -65 -46 -60 -40
-235 -207 -290 -277 -56 -70 -125 -174 -125 -188 0 -5 -6 -15 -12 -22 -13 -13
-47 -81 -48 -96 -1 -4 -7 -16 -14 -27 -12 -18 -49 -109 -52 -127 -1 -5 -3 -10
-4 -13 -1 -3 -3 -8 -4 -12 -1 -5 -5 -14 -9 -20 -5 -7 -6 -13 -3 -13 3 0 1 -11
-4 -25 -5 -14 -12 -36 -14 -48 -3 -12 -8 -33 -11 -47 -23 -98 -30 -184 -29
-350 1 -242 45 -439 148 -655 109 -230 255 -402 501 -593 10 -8 74 -48 107
-67 132 -77 182 -105 189 -105 5 0 9 -4 9 -8 0 -5 16 -14 35 -22 19 -8 35 -17
35 -22 0 -4 6 -8 14 -8 7 0 19 -7 26 -15 7 -8 16 -12 21 -9 5 3 9 1 9 -4 0 -6
11 -13 25 -16 14 -4 25 -10 25 -15 0 -5 15 -14 33 -21 17 -8 39 -19 47 -25 8
-7 35 -24 60 -37 25 -14 63 -36 85 -48 22 -13 54 -30 70 -39 17 -8 36 -21 43
-28 7 -7 20 -13 27 -13 7 0 20 -6 27 -13 17 -17 246 -147 258 -147 6 0 10 -4
10 -8 0 -9 50 -37 62 -34 3 1 12 -5 18 -13 7 -8 19 -15 26 -15 8 0 14 -5 14
-11 0 -5 5 -7 10 -4 6 3 10 2 10 -3 0 -10 99 -57 113 -54 4 1 7 -3 7 -8 0 -6
8 -10 18 -10 10 0 23 -5 30 -12 7 -7 12 -9 12 -4 0 4 12 0 28 -8 27 -16 111
-42 192 -61 14 -3 40 -8 59 -11 18 -3 43 -8 55 -10 128 -25 378 -22 514 7 26
5 61 12 77 15 35 7 181 51 210 64 133 58 234 112 650 355 55 32 118 68 140 80
22 13 81 46 130 75 50 29 108 63 130 75 22 13 81 46 130 75 50 29 110 64 135
78 25 13 52 31 61 38 8 8 19 14 22 14 10 0 134 87 177 123 71 60 146 134 190
186 25 30 50 59 55 65 6 6 23 31 40 56 16 25 34 48 40 52 5 4 6 8 2 8 -5 0 -1
7 7 16 9 8 16 21 16 29 0 7 3 15 8 17 11 4 77 135 92 183 7 22 16 45 20 50 7
9 22 61 19 67 0 2 5 17 11 33 7 17 14 39 16 50 2 11 6 30 9 43 3 12 7 32 10
45 14 62 28 216 28 307 0 103 -7 162 -39 345 -10 54 -65 217 -100 292 -92 204
-249 409 -410 539 -52 41 -64 51 -88 72 -8 6 -20 12 -26 12 -5 0 -10 4 -10 8
0 5 -12 15 -27 23 -16 8 -34 20 -41 27 -7 6 -20 12 -28 12 -8 0 -14 4 -14 9 0
5 -15 14 -32 22 -18 7 -35 15 -38 18 -4 5 -36 23 -95 55 -11 6 -22 13 -25 16
-3 3 -18 12 -35 20 -16 8 -32 17 -35 20 -3 4 -32 21 -65 40 -83 46 -111 62
-182 104 -34 20 -66 36 -72 36 -6 0 -11 5 -11 10 0 6 -6 10 -14 10 -7 0 -19 7
-26 15 -7 8 -16 12 -21 9 -5 -3 -9 -1 -9 5 0 6 -11 13 -25 17 -14 3 -25 10
-25 14 0 4 -15 13 -32 21 -18 7 -35 15 -38 18 -9 11 -65 42 -92 52 -16 6 -28
14 -28 19 0 4 -8 10 -17 13 -10 3 -40 20 -68 36 -27 17 -61 36 -75 43 -14 7
-27 15 -30 18 -3 3 -18 12 -35 20 -16 8 -48 26 -70 39 -22 13 -46 24 -52 24
-7 0 -13 4 -13 9 0 4 -3 7 -7 6 -8 -1 -16 2 -105 41 -27 11 -48 18 -48 14 0
-3 -7 0 -15 7 -8 7 -15 10 -15 6 0 -3 -12 -1 -27 5 -33 13 -188 47 -253 55
-44 6 -287 13 -292 8z"/>
<path d="M2868 7055 c-2 -2 -28 -6 -58 -8 -272 -25 -635 -188 -840 -377 -15
-14 -44 -41 -66 -61 -87 -81 -264 -312 -264 -346 0 -6 -7 -16 -15 -23 -8 -7
-15 -21 -15 -31 0 -11 -5 -19 -11 -19 -5 0 -7 -4 -4 -10 3 -5 1 -10 -4 -10 -6
0 -11 -8 -11 -18 0 -10 -7 -28 -16 -40 -8 -12 -12 -22 -8 -22 3 0 2 -6 -3 -12
-9 -11 -31 -69 -39 -103 -2 -5 -10 -35 -19 -65 -8 -30 -18 -70 -21 -89 -3 -18
-7 -42 -9 -53 -17 -85 -20 -230 -19 -953 0 -807 1 -822 22 -925 55 -256 163
-494 308 -677 47 -59 208 -219 253 -253 19 -14 47 -35 62 -47 15 -13 32 -23
38 -23 6 0 11 -3 11 -8 0 -4 17 -16 38 -27 20 -11 39 -22 42 -25 6 -6 45 -29
82 -47 15 -8 30 -19 33 -24 4 -5 11 -7 16 -4 5 4 9 2 9 -3 0 -5 8 -12 18 -16
17 -6 63 -32 132 -74 19 -12 45 -26 57 -31 11 -5 24 -15 28 -21 3 -5 11 -8 16
-5 5 4 9 2 9 -3 0 -5 8 -12 18 -16 17 -5 74 -37 102 -56 28 -19 85 -51 103
-56 9 -4 17 -10 17 -15 0 -5 4 -9 10 -9 5 0 38 -17 73 -39 35 -21 73 -42 85
-45 12 -4 22 -11 22 -16 0 -5 10 -12 22 -15 11 -4 61 -32 111 -61 49 -30 93
-54 97 -54 4 0 13 -7 20 -15 7 -8 16 -12 21 -9 5 3 9 0 9 -5 0 -6 5 -11 11
-11 6 0 24 -9 40 -21 16 -11 29 -17 29 -13 0 4 8 1 18 -8 14 -12 61 -36 82
-43 3 -1 22 -9 42 -18 21 -10 40 -17 44 -17 3 0 20 -6 37 -14 18 -8 46 -17 62
-22 17 -4 35 -8 40 -10 107 -27 139 -34 185 -40 30 -3 69 -8 85 -10 53 -6 198
-7 270 0 406 36 777 227 1053 542 104 119 216 304 257 424 1 3 7 19 14 35 25
64 31 83 50 160 21 84 26 113 38 210 9 72 10 1572 1 1665 -10 103 -37 226 -75
340 -35 106 -139 320 -154 320 -5 0 -9 5 -9 11 0 26 -127 187 -216 274 -62 61
-152 139 -168 144 -6 2 -13 7 -16 11 -10 13 -99 70 -109 70 -6 0 -11 4 -11 9
0 5 -15 14 -32 22 -18 7 -35 16 -38 19 -3 4 -30 20 -60 36 -30 16 -61 35 -68
41 -7 7 -18 13 -23 13 -6 0 -30 13 -53 30 -24 16 -46 26 -50 23 -3 -4 -6 -2
-6 4 0 6 -8 13 -17 16 -10 4 -36 17 -58 31 -22 14 -53 32 -70 41 -43 22 -71
39 -87 53 -8 6 -18 9 -21 5 -4 -3 -7 -1 -7 5 0 7 -4 12 -9 12 -5 0 -42 20 -83
45 -42 25 -80 45 -87 45 -6 0 -11 4 -11 8 0 8 -46 33 -60 34 -3 0 -16 9 -29
19 -13 11 -30 19 -37 19 -8 0 -14 4 -14 8 0 4 -26 21 -57 37 -32 17 -59 33
-61 38 -2 4 -9 7 -17 7 -7 0 -18 7 -25 15 -7 8 -16 12 -21 9 -5 -3 -9 -1 -9 5
0 6 -11 13 -25 17 -14 3 -25 10 -25 16 0 5 -4 7 -9 4 -5 -4 -11 -3 -13 1 -4 9
-113 66 -125 65 -4 0 -24 9 -43 21 -19 12 -35 20 -35 19 0 -2 -12 1 -28 7 -15
6 -38 13 -50 15 -12 3 -38 10 -57 16 -19 6 -46 13 -60 16 -14 3 -32 7 -40 9
-8 3 -33 7 -55 11 -22 3 -44 8 -48 11 -9 5 -333 13 -339 8z"/>
<path d="M8899 7055 c-2 -1 -31 -5 -64 -8 -83 -8 -113 -13 -181 -32 -33 -9
-68 -17 -79 -19 -44 -7 -300 -115 -330 -139 -9 -7 -684 -397 -788 -456 -43
-24 -170 -97 -339 -195 -179 -104 -326 -224 -438 -356 -11 -14 -36 -43 -55
-65 -19 -22 -35 -46 -35 -52 0 -7 -4 -13 -10 -13 -5 0 -10 -7 -10 -15 0 -8 -4
-15 -10 -15 -5 0 -10 -7 -10 -15 0 -8 -4 -15 -9 -15 -5 0 -14 -15 -22 -32 -7
-18 -15 -35 -18 -38 -11 -10 -70 -135 -95 -202 -27 -74 -62 -195 -71 -245 -3
-18 -7 -45 -10 -60 -2 -16 -7 -55 -11 -88 -9 -79 -11 -1425 -2 -1580 14 -252
87 -490 216 -704 25 -42 48 -78 51 -81 4 -3 20 -25 36 -50 41 -61 280 -300
300 -300 3 0 18 -11 33 -25 15 -14 32 -25 39 -25 7 0 13 -4 13 -10 0 -5 7 -10
15 -10 8 0 15 -4 15 -8 0 -8 238 -132 253 -132 3 0 18 -5 34 -12 15 -6 31 -12
36 -13 4 -2 9 -4 12 -5 3 -1 8 -3 13 -4 4 -1 23 -7 42 -14 37 -12 43 -13 155
-36 179 -37 382 -37 577 0 94 18 321 91 326 105 2 5 11 9 19 9 9 0 46 16 82
37 113 62 676 387 681 393 3 3 21 13 40 22 19 10 42 22 50 27 41 27 380 221
385 221 9 0 90 54 93 63 2 4 8 7 14 7 22 0 187 130 267 210 31 32 98 109 126
145 11 14 26 32 33 40 6 7 12 18 12 23 0 6 3 12 8 14 10 4 62 86 62 98 0 5 5
10 11 10 5 0 8 4 5 9 -4 5 -3 11 1 13 11 4 91 171 98 203 1 5 7 23 14 39 6 16
13 36 15 45 2 9 6 23 9 31 3 8 8 26 10 40 3 14 8 36 11 50 4 14 9 41 12 60 3
19 7 41 9 47 26 76 26 1710 0 1786 -2 7 -7 29 -10 50 -26 180 -119 410 -234
582 -89 133 -164 217 -280 315 -29 25 -65 55 -80 67 -14 13 -29 23 -33 23 -5
0 -17 9 -28 20 -11 11 -27 20 -35 20 -8 0 -15 5 -15 10 0 6 -6 10 -14 10 -8 0
-16 4 -18 8 -5 14 -208 109 -288 136 -87 29 -176 52 -240 62 -25 3 -56 8 -70
11 -33 5 -297 13 -301 8z"/>
</g>
</svg>
